# xmcd CD database file
#
# Track frame offsets:
#	150
#	10910
#	19670
#	29390
#	42465
#	59245
#	77600
#	97992
#	115765
#	146200
#
# Disc length: 2157 seconds
#
# Revision: 1
# Processed by: cddbd v1.5.1PL2 Copyright (c) Steve Scherf et al.
# Submitted via: CDex 1.60beta1
#
DISCID=82086b0a
DTITLE=竹田　和夫 - Misty Morning Flight
DYEAR=1981
DGENRE=Rock
TTITLE0=AMARILLO-at the airport
TTITLE1=AMARILLO-daybreak
TTITLE2=AMARILLO-misty morning flight
TTITLE3=暗闇のレオ
TTITLE4=Midnight Blue Moon Part1
TTITLE5=Midnight Blue Moon Part2
TTITLE6=Toward North Wind
TTITLE7=50 Coffee Break Blues
TTITLE8=Tokyo Sarry
TTITLE9=Wild Cat
EXTD=YEAR: 1981
EXTT0=
EXTT1=
EXTT2=
EXTT3=
EXTT4=
EXTT5=
EXTT6=
EXTT7=
EXTT8=
EXTT9=
PLAYORDER=
